<svg width="20" height="22" viewBox="0 0 20 22" fill="none" xmlns="http://www.w3.org/2000/svg">
<path d="M0 17.0981C0 17.7817 0.52239 18.2403 1.37645 18.2403H6.24379C6.3184 20.2744 7.8524 21.9833 10 21.9833C12.1476 21.9833 13.6816 20.2827 13.7562 18.2403H18.6153C19.4776 18.2403 20 17.7817 20 17.0981C20 16.0227 18.9386 15.064 18.0348 14.1137C17.2222 13.2383 17.0979 11.4543 16.9569 9.92875C16.8159 6.04396 15.7297 3.44297 12.9685 2.50095C12.6368 1.07541 11.5174 0 10 0C8.48259 0 7.3549 1.07541 7.0315 2.50095C4.2703 3.44297 3.18408 6.04396 3.04312 9.92875C2.90216 11.4543 2.77778 13.2383 1.96517 14.1137C1.05307 15.064 0 16.0227 0 17.0981ZM1.76617 16.848V16.723C1.91542 16.3312 2.60365 15.6226 3.20066 14.964C4.09617 13.9803 4.33667 12.263 4.49419 10.0622C4.66003 5.81054 5.94528 4.28495 7.79436 3.77644C8.09286 3.70139 8.25871 3.55968 8.27528 3.27624C8.34161 2.15915 8.98009 1.35885 10 1.35885C11.0199 1.35885 11.6584 2.15915 11.7164 3.27624C11.7413 3.55968 11.9071 3.70139 12.2056 3.77644C14.0547 4.28495 15.34 5.81054 15.5058 10.0622C15.6634 12.263 15.9038 13.9803 16.7993 14.964C17.3964 15.6226 18.0846 16.3312 18.2338 16.723V16.848H1.76617ZM7.66998 18.2403H12.33C12.2471 19.7325 11.3101 20.6912 10 20.6912C8.68987 20.6912 7.75289 19.7325 7.66998 18.2403Z" fill="black" fill-opacity="0.85"/>
</svg>
