<svg width="27" height="25" viewBox="0 0 27 25" fill="none" xmlns="http://www.w3.org/2000/svg">
<path d="M4.09953 24.9994H22.8899C25.6195 24.9994 27 23.6182 27 20.9089V4.12177C27 1.41247 25.6195 0.03125 22.8899 0.03125H4.09953C1.38056 0.03125 0 1.40184 0 4.12177V20.9089C0 23.6288 1.38056 24.9994 4.09953 24.9994ZM3.95199 23.1188C2.60304 23.1188 1.86534 22.3963 1.86534 20.9939V8.31854C1.86534 6.90543 2.60304 6.1936 3.95199 6.1936H23.0269C24.3653 6.1936 25.1241 6.90543 25.1241 8.31854V20.9939C25.1241 22.3963 24.3653 23.1188 23.0269 23.1188H3.95199ZM10.8126 11.081H11.6136C12.0668 11.081 12.1932 10.9535 12.1932 10.5072V9.7104C12.1932 9.26416 12.0668 9.14727 11.6136 9.14727H10.8126C10.37 9.14727 10.2436 9.26416 10.2436 9.7104V10.5072C10.2436 10.9535 10.37 11.081 10.8126 11.081ZM15.3969 11.081H16.1979C16.6405 11.081 16.767 10.9535 16.767 10.5072V9.7104C16.767 9.26416 16.6405 9.14727 16.1979 9.14727H15.3969C14.9438 9.14727 14.8173 9.26416 14.8173 9.7104V10.5072C14.8173 10.9535 14.9438 11.081 15.3969 11.081ZM19.9707 11.081H20.7717C21.2143 11.081 21.3513 10.9535 21.3513 10.5072V9.7104C21.3513 9.26416 21.2143 9.14727 20.7717 9.14727H19.9707C19.5281 9.14727 19.3911 9.26416 19.3911 9.7104V10.5072C19.3911 10.9535 19.5281 11.081 19.9707 11.081ZM6.23887 15.6177H7.03982C7.48245 15.6177 7.61946 15.5009 7.61946 15.0546V14.2472C7.61946 13.8115 7.48245 13.684 7.03982 13.684H6.23887C5.79624 13.684 5.65927 13.8115 5.65927 14.2472V15.0546C5.65927 15.5009 5.79624 15.6177 6.23887 15.6177ZM10.8126 15.6177H11.6136C12.0668 15.6177 12.1932 15.5009 12.1932 15.0546V14.2472C12.1932 13.8115 12.0668 13.684 11.6136 13.684H10.8126C10.37 13.684 10.2436 13.8115 10.2436 14.2472V15.0546C10.2436 15.5009 10.37 15.6177 10.8126 15.6177ZM15.3969 15.6177H16.1979C16.6405 15.6177 16.767 15.5009 16.767 15.0546V14.2472C16.767 13.8115 16.6405 13.684 16.1979 13.684H15.3969C14.9438 13.684 14.8173 13.8115 14.8173 14.2472V15.0546C14.8173 15.5009 14.9438 15.6177 15.3969 15.6177ZM19.9707 15.6177H20.7717C21.2143 15.6177 21.3513 15.5009 21.3513 15.0546V14.2472C21.3513 13.8115 21.2143 13.684 20.7717 13.684H19.9707C19.5281 13.684 19.3911 13.8115 19.3911 14.2472V15.0546C19.3911 15.5009 19.5281 15.6177 19.9707 15.6177ZM6.23887 20.1651H7.03982C7.48245 20.1651 7.61946 20.0482 7.61946 19.602V18.7945C7.61946 18.3483 7.48245 18.2314 7.03982 18.2314H6.23887C5.79624 18.2314 5.65927 18.3483 5.65927 18.7945V19.602C5.65927 20.0482 5.79624 20.1651 6.23887 20.1651ZM10.8126 20.1651H11.6136C12.0668 20.1651 12.1932 20.0482 12.1932 19.602V18.7945C12.1932 18.3483 12.0668 18.2314 11.6136 18.2314H10.8126C10.37 18.2314 10.2436 18.3483 10.2436 18.7945V19.602C10.2436 20.0482 10.37 20.1651 10.8126 20.1651ZM15.3969 20.1651H16.1979C16.6405 20.1651 16.767 20.0482 16.767 19.602V18.7945C16.767 18.3483 16.6405 18.2314 16.1979 18.2314H15.3969C14.9438 18.2314 14.8173 18.3483 14.8173 18.7945V19.602C14.8173 20.0482 14.9438 20.1651 15.3969 20.1651Z" fill="#24C8A3"/>
</svg>
