<svg width="28" height="25" viewBox="0 0 28 25" fill="none" xmlns="http://www.w3.org/2000/svg">
<path d="M10.5615 23.9385H17.4385V16.1359C17.4385 15.6145 17.1044 15.2793 16.5847 15.2793H11.4246C10.9049 15.2793 10.5615 15.6145 10.5615 16.1359V23.9385ZM0.881672 12.4115C1.16009 12.4115 1.39211 12.2626 1.59629 12.0857L13.5499 2.02048C13.6891 1.89944 13.8469 1.84357 13.9954 1.84357C14.1531 1.84357 14.3109 1.89944 14.4501 2.02048L26.4037 12.0857C26.6079 12.2626 26.8307 12.4115 27.1183 12.4115C27.6659 12.4115 28 12.0112 28 11.6015C28 11.3501 27.8979 11.108 27.6659 10.9125L15.3411 0.540039C14.9142 0.176909 14.4594 0 13.9954 0C13.5406 0 13.0858 0.176909 12.6589 0.540039L0.334107 10.9125C0.102088 11.108 0 11.3501 0 11.6015C0 12.0112 0.324826 12.4115 0.881672 12.4115ZM21.9118 6.58285L24.6404 8.89198V3.59404C24.6404 3.12849 24.3341 2.83054 23.8701 2.83054H22.6914C22.2274 2.83054 21.9118 3.12849 21.9118 3.59404V6.58285ZM5.92113 24.9814H22.0789C23.7123 24.9814 24.6404 24.0596 24.6404 22.4488V9.17134L22.9977 8.02606V22.0484C22.9977 22.8957 22.5708 23.3333 21.7262 23.3333H6.26451C5.42923 23.3333 5.00233 22.8957 5.00233 22.0484V8.04471L3.35963 9.17134V22.4488C3.35963 24.0689 4.28771 24.9814 5.92113 24.9814Z" fill="#A2A2A2"/>
</svg>
