<svg width="24" height="25" viewBox="0 0 24 25" fill="none" xmlns="http://www.w3.org/2000/svg">
<g clip-path="url(#clip0_785_1178)">
<path d="M3.14631 24.9895H20.8537C22.9906 24.9895 24 24.3352 24 22.921C24 19.3647 19.4363 14.2571 11.9946 14.2571C4.56377 14.2571 0 19.3647 0 22.921C0 24.3352 1.0094 24.9895 3.14631 24.9895ZM2.62014 23.2271C2.09396 23.2271 1.90067 23.0899 1.90067 22.71C1.90067 20.2512 5.54096 16.03 11.9946 16.03C18.4591 16.03 22.0993 20.2512 22.0993 22.71C22.0993 23.0899 21.9061 23.2271 21.3799 23.2271H2.62014ZM12.0161 12.4631C15.2698 12.4631 17.8899 9.64544 17.8899 6.15239C17.8899 2.72267 15.2698 0 12.0161 0C8.77316 0 6.13153 2.76488 6.13153 6.17348C6.13153 9.65599 8.76243 12.4631 12.0161 12.4631ZM12.0161 10.7007C9.83626 10.7007 8.03221 8.71675 8.03221 6.17348C8.03221 3.7041 9.82552 1.76235 12.0161 1.76235C14.2067 1.76235 15.9893 3.67243 15.9893 6.15239C15.9893 8.69566 14.196 10.7007 12.0161 10.7007Z" fill="#A2A2A2" fill-opacity="0.85"/>
</g>
<defs>
<clipPath id="clip0_785_1178">
<rect width="24" height="25" fill="white"/>
</clipPath>
</defs>
</svg>
