<svg width="20" height="20" viewBox="0 0 20 20" fill="none" xmlns="http://www.w3.org/2000/svg">
<path d="M1.95661 9.07766H7.11188C8.40493 9.07766 9.06848 8.44869 9.06848 7.0972V2.00584C9.06848 0.654374 8.40493 0.0253906 7.11188 0.0253906H1.95661C0.663548 0.0253906 0 0.654374 0 2.00584V7.0972C0 8.44869 0.663548 9.07766 1.95661 9.07766ZM1.97363 7.75169C1.53977 7.75169 1.3356 7.53921 1.3356 7.08021V2.01434C1.3356 1.56385 1.53977 1.35986 1.97363 1.35986H7.08634C7.52019 1.35986 7.73288 1.56385 7.73288 2.01434V7.08021C7.73288 7.53921 7.52019 7.75169 7.08634 7.75169H1.97363ZM3.61549 5.67775H5.43599C5.58909 5.67775 5.65718 5.60976 5.65718 5.42276V3.66331C5.65718 3.49331 5.58909 3.42531 5.43599 3.42531H3.61549C3.46235 3.42531 3.41131 3.49331 3.41131 3.66331V5.42276C3.41131 5.60976 3.46235 5.67775 3.61549 5.67775ZM12.8881 9.07766H18.0434C19.3365 9.07766 20 8.44869 20 7.0972V2.00584C20 0.654374 19.3365 0.0253906 18.0434 0.0253906H12.8881C11.5866 0.0253906 10.9315 0.654374 10.9315 2.00584V7.0972C10.9315 8.44869 11.5866 9.07766 12.8881 9.07766ZM12.9136 7.75169C12.4628 7.75169 12.2671 7.53921 12.2671 7.08021V2.01434C12.2671 1.56385 12.4628 1.35986 12.9136 1.35986H18.0264C18.4602 1.35986 18.6644 1.56385 18.6644 2.01434V7.08021C18.6644 7.53921 18.4602 7.75169 18.0264 7.75169H12.9136ZM14.598 5.67775H16.4185C16.5717 5.67775 16.6397 5.60976 16.6397 5.42276V3.66331C16.6397 3.49331 16.5717 3.42531 16.4185 3.42531H14.598C14.4449 3.42531 14.3939 3.49331 14.3939 3.66331V5.42276C14.3939 5.60976 14.4449 5.67775 14.598 5.67775ZM1.95661 19.9999H7.11188C8.40493 19.9999 9.06848 19.3709 9.06848 18.0194V12.9281C9.06848 11.5766 8.40493 10.9391 7.11188 10.9391H1.95661C0.663548 10.9391 0 11.5766 0 12.9281V18.0194C0 19.3709 0.663548 19.9999 1.95661 19.9999ZM1.97363 18.6654C1.53977 18.6654 1.3356 18.4614 1.3356 18.0109V12.9366C1.3356 12.4861 1.53977 12.2736 1.97363 12.2736H7.08634C7.52019 12.2736 7.73288 12.4861 7.73288 12.9366V18.0109C7.73288 18.4614 7.52019 18.6654 7.08634 18.6654H1.97363ZM3.61549 16.5915H5.43599C5.58909 16.5915 5.65718 16.532 5.65718 16.345V14.5855C5.65718 14.4155 5.58909 14.3475 5.43599 14.3475H3.61549C3.46235 14.3475 3.41131 14.4155 3.41131 14.5855V16.345C3.41131 16.532 3.46235 16.5915 3.61549 16.5915ZM11.6376 13.6845H13.4496C13.6112 13.6845 13.6708 13.6165 13.6708 13.438V11.6701C13.6708 11.5001 13.6112 11.4406 13.4496 11.4406H11.6376C11.476 11.4406 11.4249 11.5001 11.4249 11.6701V13.438C11.4249 13.6165 11.476 13.6845 11.6376 13.6845ZM17.4649 13.6845H19.2769C19.4385 13.6845 19.4981 13.6165 19.4981 13.438V11.6701C19.4981 11.5001 19.4385 11.4406 19.2769 11.4406H17.4649C17.3033 11.4406 17.2522 11.5001 17.2522 11.6701V13.438C17.2522 13.6165 17.3033 13.6845 17.4649 13.6845ZM14.5725 16.5915H16.393C16.5547 16.5915 16.6142 16.532 16.6142 16.345V14.5855C16.6142 14.4155 16.5547 14.3475 16.393 14.3475H14.5725C14.4194 14.3475 14.3684 14.4155 14.3684 14.5855V16.345C14.3684 16.532 14.4194 16.5915 14.5725 16.5915ZM11.6376 19.5069H13.4496C13.6112 19.5069 13.6708 19.4389 13.6708 19.2604V17.501C13.6708 17.3225 13.6112 17.263 13.4496 17.263H11.6376C11.476 17.263 11.4249 17.3225 11.4249 17.501V19.2604C11.4249 19.4389 11.476 19.5069 11.6376 19.5069ZM17.4649 19.5069H19.2769C19.4385 19.5069 19.4981 19.4389 19.4981 19.2604V17.501C19.4981 17.3225 19.4385 17.263 19.2769 17.263H17.4649C17.3033 17.263 17.2522 17.3225 17.2522 17.501V19.2604C17.2522 19.4389 17.3033 19.5069 17.4649 19.5069Z" fill="black" fill-opacity="0.85"/>
</svg>
