<svg width="20" height="25" viewBox="0 0 20 25" fill="none" xmlns="http://www.w3.org/2000/svg">
<g clip-path="url(#clip0_785_1196)">
<path d="M3.5864 25.0007H16.4136C18.7797 25.0007 20 23.8037 20 21.4733V3.53715C20 1.18858 18.7983 0.00976562 16.4136 0.00976562H12.8458C12.4919 0.00976562 12.2683 0.245529 12.2683 0.608241C12.2683 1.86867 11.3461 2.78452 10.0047 2.78452C8.65395 2.78452 7.72242 1.86867 7.72242 0.608241C7.72242 0.245529 7.49883 0.00976562 7.14486 0.00976562H3.5864C1.20168 0.00976562 0 1.18858 0 3.53715V21.4733C0 23.8037 1.22031 25.0007 3.5864 25.0007ZM3.67955 23.3957C2.33815 23.3957 1.64881 22.6793 1.64881 21.437V3.57342C1.64881 2.30392 2.33815 1.61477 3.67955 1.61477H7.11689L6.14812 1.03443C6.34374 3.03842 7.86214 4.34417 10.0047 4.34417C12.1379 4.34417 13.6563 3.03842 13.8519 1.03443L12.8831 1.61477H16.3204C17.6619 1.61477 18.3512 2.30392 18.3512 3.57342V21.437C18.3512 22.6793 17.6619 23.3957 16.3204 23.3957H3.67955Z" fill="#A2A2A2" fill-opacity="0.85"/>
<path d="M5.34694 8.47845H14.6715C15.0349 8.47845 15.3143 8.19737 15.3143 7.83468C15.3143 7.48101 15.0349 7.20898 14.6715 7.20898H5.34694C4.965 7.20898 4.68555 7.48101 4.68555 7.83468C4.68555 8.19737 4.965 8.47845 5.34694 8.47845Z" fill="#A2A2A2" fill-opacity="0.85"/>
<path d="M5.34694 12.7038H9.80896C10.1816 12.7038 10.461 12.4318 10.461 12.0781C10.461 11.7245 10.1816 11.4434 9.80896 11.4434H5.34694C4.965 11.4434 4.68555 11.7245 4.68555 12.0781C4.68555 12.4318 4.965 12.7038 5.34694 12.7038Z" fill="#A2A2A2" fill-opacity="0.85"/>
</g>
<defs>
<clipPath id="clip0_785_1196">
<rect width="20" height="25" fill="white"/>
</clipPath>
</defs>
</svg>
