<svg width="25" height="25" viewBox="0 0 25 25" fill="none" xmlns="http://www.w3.org/2000/svg">
<path d="M25 12.4952C25 19.3709 19.3858 24.9808 12.4952 24.9808C5.6142 24.9808 0 19.3709 0 12.4952C0 5.60988 5.6142 0 12.4952 0C19.3858 0 25 5.60988 25 12.4952ZM16.2764 7.51821L12.5075 11.2677L8.7428 7.51821C8.56045 7.34561 8.35891 7.25928 8.11901 7.25928C7.61998 7.25928 7.2265 7.63329 7.2265 8.11277C7.2265 8.36211 7.32245 8.58266 7.49521 8.75525L11.2558 12.513L7.49521 16.2543C7.32245 16.4365 7.2265 16.6475 7.2265 16.8872C7.2265 17.3763 7.61998 17.7695 8.11901 17.7695C8.36854 17.7695 8.57967 17.6736 8.76198 17.501L12.5048 13.761L16.2476 17.501C16.4204 17.6736 16.6315 17.7695 16.8906 17.7695C17.3801 17.7695 17.7735 17.3763 17.7735 16.8872C17.7735 16.6475 17.6871 16.4365 17.5144 16.2543L13.7558 12.5109L17.5144 8.75525C17.6871 8.58266 17.7735 8.36211 17.7735 8.11277C17.7735 7.63329 17.3801 7.25928 16.8906 7.25928C16.6507 7.25928 16.4396 7.34561 16.2764 7.51821Z" fill="#24C8A3"/>
</svg>
